<svg width="14" height="14" viewBox="0 0 14 14" fill="none" xmlns="http://www.w3.org/2000/svg">
<path d="M6.34107 9.7475L2.14457 4.95075C1.64932 4.38638 2.05182 3.5 2.80345 3.5H11.1964C11.3647 3.49986 11.5294 3.5482 11.6708 3.63925C11.8122 3.73029 11.9244 3.86018 11.994 4.01336C12.0635 4.16653 12.0874 4.3365 12.0628 4.50291C12.0382 4.66931 11.9662 4.8251 11.8553 4.95163L7.65882 9.74663C7.57669 9.84061 7.47541 9.91593 7.36177 9.96755C7.24813 10.0192 7.12476 10.0459 6.99995 10.0459C6.87514 10.0459 6.75177 10.0192 6.63813 9.96755C6.52449 9.91593 6.4232 9.84061 6.34107 9.74663V9.7475Z" fill="white"/>
</svg>
