<svg width="14" height="14" viewBox="0 0 14 14" fill="none" xmlns="http://www.w3.org/2000/svg">
<g clip-path="url(#clip0_2_349)">
<path d="M6.99996 12.8333C10.2217 12.8333 12.8333 10.2217 12.8333 6.99999C12.8333 3.77824 10.2217 1.16666 6.99996 1.16666C3.77821 1.16666 1.16663 3.77824 1.16663 6.99999C1.16663 10.2217 3.77821 12.8333 6.99996 12.8333Z" stroke="white" stroke-width="1.16667" stroke-linecap="round" stroke-linejoin="round"/>
<path d="M1.16663 7H12.8333" stroke="white" stroke-width="1.16667" stroke-linecap="round" stroke-linejoin="round"/>
<path d="M6.99996 12.8333C8.28854 12.8333 9.33329 10.2217 9.33329 6.99999C9.33329 3.77824 8.28854 1.16666 6.99996 1.16666C5.71138 1.16666 4.66663 3.77824 4.66663 6.99999C4.66663 10.2217 5.71138 12.8333 6.99996 12.8333Z" stroke="white" stroke-width="1.16667" stroke-linecap="round" stroke-linejoin="round"/>
<path d="M2.87524 2.95807C3.41631 3.50056 4.05925 3.93078 4.76711 4.22399C5.47497 4.51721 6.2338 4.66764 6.99999 4.66665V4.66665C7.76618 4.66764 8.52502 4.51721 9.23288 4.22399C9.94074 3.93078 10.5837 3.50056 11.1247 2.95807" stroke="white" stroke-width="1.16667" stroke-linecap="round" stroke-linejoin="round"/>
<path d="M11.1247 11.0419C10.5837 10.4994 9.94074 10.0692 9.23288 9.77598C8.52502 9.48276 7.76618 9.33233 6.99999 9.33332C6.2338 9.33233 5.47497 9.48276 4.76711 9.77598C4.05925 10.0692 3.41631 10.4994 2.87524 11.0419" stroke="white" stroke-width="1.16667" stroke-linecap="round" stroke-linejoin="round"/>
</g>
<defs>
<clipPath id="clip0_2_349">
<rect width="14" height="14" fill="white"/>
</clipPath>
</defs>
</svg>
